<svg xmlns="http://www.w3.org/2000/svg" width="19.003" height="19.003" viewBox="0 0 19.003 19.003">
  <path id="Icon_awesome-facebook-square" data-name="Icon awesome-facebook-square" d="M16.967,2.25H2.036A2.036,2.036,0,0,0,0,4.286V19.217a2.036,2.036,0,0,0,2.036,2.036H7.858v-6.46H5.185V11.751H7.858V9.434c0-2.636,1.569-4.092,3.973-4.092a16.189,16.189,0,0,1,2.355.205V8.134H12.859a1.521,1.521,0,0,0-1.714,1.643v1.974h2.917L13.6,14.792H11.145v6.46h5.822A2.036,2.036,0,0,0,19,19.217V4.286A2.036,2.036,0,0,0,16.967,2.25Z" transform="translate(0 -2.25)" fill="#26327e"/>
</svg>
