<svg xmlns="http://www.w3.org/2000/svg" width="19.003" height="19.003" viewBox="0 0 19.003 19.003">
  <path id="Icon_awesome-twitter-square" data-name="Icon awesome-twitter-square" d="M16.967,2.25H2.036A2.037,2.037,0,0,0,0,4.286V19.217a2.037,2.037,0,0,0,2.036,2.036H16.967A2.037,2.037,0,0,0,19,19.217V4.286A2.037,2.037,0,0,0,16.967,2.25ZM14.892,8.986c.008.119.008.242.008.361a7.861,7.861,0,0,1-7.915,7.915,7.878,7.878,0,0,1-4.271-1.247,5.861,5.861,0,0,0,.67.034A5.578,5.578,0,0,0,6.838,14.86a2.786,2.786,0,0,1-2.6-1.93,3,3,0,0,0,1.256-.051,2.782,2.782,0,0,1-2.227-2.732v-.034a2.78,2.78,0,0,0,1.256.352A2.776,2.776,0,0,1,3.283,8.15a2.747,2.747,0,0,1,.378-1.4A7.9,7.9,0,0,0,9.4,9.656a2.788,2.788,0,0,1,4.746-2.541,5.451,5.451,0,0,0,1.765-.67,2.775,2.775,0,0,1-1.222,1.531,5.536,5.536,0,0,0,1.6-.433A5.855,5.855,0,0,1,14.892,8.986Z" transform="translate(0 -2.25)" fill="#26327e"/>
</svg>
