<svg xmlns="http://www.w3.org/2000/svg" width="185.972" height="40.261" viewBox="0 0 185.972 40.261">
  <g id="Group_125" data-name="Group 125" transform="translate(-926.864 -453.439)">
    <path id="Path_149" data-name="Path 149" d="M9808.343,485V456.752H9992.9v19.831l-11.835-6.077h-6.077c-.96,0-3.838.96-5.437,1.279s-18.231,6.077-18.231,6.077L9935.325,485l-5.757,4.378a38.012,38.012,0,0,1-8.956,2.239c-5.118.64-9.916,4.158-11.835,4.478s-5.438-.64-7.037,0-23.67-3.2-24.629-4.478S9852.8,485,9852.8,485l-13.114-7.137-8-1.279s-14.394,5.757-15.673,6.4A70.44,70.44,0,0,1,9808.343,485Z" transform="translate(-8880.146 -3.314)" fill="#2b3990" opacity="0.2"/>
    <path id="Path_148" data-name="Path 148" d="M9805.9,487.5s24.355-11.548,29-10.634,22.039,9.392,31.316,10.634,18.56,5.81,22.038,6.723,12.757,5.481,22.036,0,17.4-.657,22.038-6.723,9.279-5.153,19.718-10.634a59.678,59.678,0,0,1,19.719-6.395s-1.162-2.741,6.958,0a26.328,26.328,0,0,1,9.044,4.88,7.606,7.606,0,0,1,1.4,1.515" transform="translate(-8877.702 -4.023)" fill="none" stroke="#2b3990" stroke-linecap="round" stroke-width="2"/>
  </g>
</svg>
