<svg xmlns="http://www.w3.org/2000/svg" width="29.564" height="29.564" viewBox="0 0 29.564 29.564">
  <path id="Icon_awesome-arrow-circle-left" data-name="Icon awesome-arrow-circle-left" d="M14.782,29.564A14.782,14.782,0,1,1,29.564,14.782,14.78,14.78,0,0,1,14.782,29.564ZM16.5,21.005,12,16.69H22.889a1.427,1.427,0,0,0,1.431-1.431v-.954a1.427,1.427,0,0,0-1.431-1.431H12l4.5-4.315a1.432,1.432,0,0,0,.024-2.044l-.656-.65a1.425,1.425,0,0,0-2.021,0l-7.91,7.9a1.425,1.425,0,0,0,0,2.021l7.91,7.91a1.425,1.425,0,0,0,2.021,0l.656-.65A1.432,1.432,0,0,0,16.5,21.005Z" transform="translate(0 29.564) rotate(-90)" fill="red"/>
</svg>
