<svg xmlns="http://www.w3.org/2000/svg" width="18.445" height="18.445" viewBox="0 0 18.445 18.445">
  <g id="Icon_feather-instagram" data-name="Icon feather-instagram" transform="translate(1 1)">
    <path id="Path_23" data-name="Path 23" d="M7.111,3h8.222a4.111,4.111,0,0,1,4.111,4.111v8.222a4.111,4.111,0,0,1-4.111,4.111H7.111A4.111,4.111,0,0,1,3,15.333V7.111A4.111,4.111,0,0,1,7.111,3Z" transform="translate(-3 -3)" fill="none" stroke="#26327f" stroke-linecap="round" stroke-linejoin="round" stroke-width="2"/>
    <path id="Path_24" data-name="Path 24" d="M18.607,14.741a3.289,3.289,0,1,1-2.771-2.771,3.289,3.289,0,0,1,2.771,2.771Z" transform="translate(-7.096 -7.037)" fill="none" stroke="#26327f" stroke-linecap="round" stroke-linejoin="round" stroke-width="2"/>
    <path id="Path_25" data-name="Path 25" d="M26.25,9.75h0" transform="translate(-13.505 -6.05)" fill="none" stroke="#26327f" stroke-linecap="round" stroke-linejoin="round" stroke-width="2"/>
  </g>
</svg>
