<svg xmlns="http://www.w3.org/2000/svg" width="90.783" height="56.759" viewBox="0 0 90.783 56.759">
  <g id="Group_26" data-name="Group 26" transform="translate(-600.013 -937.317)">
    <g id="Group_17" data-name="Group 17" transform="translate(600.013 978.095)">
      <path id="Path_3" data-name="Path 3" d="M602.372,1746.982v10.908h-2.359v-12.061h1.224A1.159,1.159,0,0,1,602.372,1746.982Z" transform="translate(-600.013 -1745.829)" fill="#fff"/>
      <path id="Path_4" data-name="Path 4" d="M680.282,1800.994c0,3.228-1.437,4.86-4.275,4.86s-4.257-1.632-4.257-4.86c0-3.264,1.419-4.877,4.257-4.877S680.282,1797.731,680.282,1800.994Zm-6.137,0c.018,1.827.639,2.749,1.845,2.749s1.809-.958,1.827-2.82c0-1.827-.6-2.731-1.809-2.731C674.766,1798.192,674.145,1799.132,674.145,1800.994Z" transform="translate(-668.133 -1793.581)" fill="#fff"/>
      <path id="Path_5" data-name="Path 5" d="M860.592,1802.96c0-3.122,1.454-4.682,4.363-4.736,2.927-.018,4.4,1.366,4.4,4.186v5.552c0,2.359-1.49,3.547-4.487,3.6a3.773,3.773,0,0,1-4.026-2.98h2.607c.16.674.709.993,1.685.993,1.242,0,1.88-.727,1.88-2.182v-.958a3.006,3.006,0,0,1-2.678,1.384C861.834,1807.821,860.592,1806.188,860.592,1802.96Zm6.421.071c.018-1.9-.639-2.838-1.986-2.838s-2,.94-2,2.838c.053,1.809.692,2.713,1.969,2.713S866.942,1804.841,867.013,1803.032Z" transform="translate(-847.45 -1795.582)" fill="#fff"/>
      <path id="Path_6" data-name="Path 6" d="M1064.37,1745.829a1,1,0,0,1,1.135,1.153v.692h-2.359v-1.845Zm0,2.678a1,1,0,0,1,1.135,1.135v8.248h-2.359v-9.383Z" transform="translate(-1039.787 -1745.829)" fill="#fff"/>
      <path id="Path_7" data-name="Path 7" d="M1139.247,1805.854c-2.838,0-4.292-1.632-4.363-4.86,0-3.21,1.437-4.824,4.328-4.877,2.27,0,3.618,1.011,4.026,3.051h-2.572a1.537,1.537,0,0,0-1.525-.975c-1.242,0-1.862.94-1.862,2.8s.656,2.8,1.969,2.785a1.842,1.842,0,0,0,1.419-.674,1.088,1.088,0,0,1,.8-.337h1.774A3.715,3.715,0,0,1,1139.247,1805.854Z" transform="translate(-1107.907 -1793.581)" fill="#fff"/>
      <path id="Path_8" data-name="Path 8" d="M1436.563,1805.854c-2.838,0-4.292-1.632-4.363-4.86,0-3.21,1.437-4.824,4.328-4.877,2.27,0,3.618,1.011,4.026,3.051h-2.572a1.537,1.537,0,0,0-1.525-.975c-1.242,0-1.862.94-1.862,2.8s.656,2.8,1.969,2.785a1.841,1.841,0,0,0,1.419-.674,1.087,1.087,0,0,1,.8-.337h1.774A3.715,3.715,0,0,1,1436.563,1805.854Z" transform="translate(-1390.228 -1793.581)" fill="#fff"/>
      <path id="Path_9" data-name="Path 9" d="M1622.449,1803.472c.071-3.033,1.685-4.541,4.824-4.541h.337v2.448h-.8c-1.312,0-1.969.692-1.969,2.058v4.878h-2.394Z" transform="translate(-1570.882 -1796.253)" fill="#fff"/>
      <path id="Path_10" data-name="Path 10" d="M1744.879,1809.981c1.295,0,1.756-.639,1.383-1.88l-3.192-9.17h2.678l1.863,6.509,1.632-5.676a1.038,1.038,0,0,1,1.117-.833h1.649l-3.707,10.979c-.568,1.543-1.135,2.075-3.086,2.075a3.085,3.085,0,0,1-.993-.071v-1.933Z" transform="translate(-1685.419 -1796.253)" fill="#fff"/>
      <path id="Path_11" data-name="Path 11" d="M1944.474,1808.811a1.035,1.035,0,0,1-1.171,1.17h-1.188v-8.975c.124-2.8,1.579-4.186,4.4-4.186q4.363,0,4.363,4.736c0,3.192-1.241,4.842-3.742,4.931a2.927,2.927,0,0,1-2.66-1.455Zm2-4.434c1.277,0,1.933-.9,1.987-2.714,0-1.9-.674-2.838-2.022-2.838s-1.987.94-1.969,2.838C1944.545,1803.473,1945.2,1804.377,1946.478,1804.377Z" transform="translate(-1874.425 -1794.249)" fill="#fff"/>
      <path id="Path_12" data-name="Path 12" d="M2140.24,1750.192h-.248v5.2c0,.39.23.6.692.6h.727v1.791a12.917,12.917,0,0,1-2.483-.018c-.887-.089-1.312-.638-1.295-1.685v-10.252h1.224a1.19,1.19,0,0,1,1.135,1.188v1.49h1.419v.515A1.148,1.148,0,0,1,2140.24,1750.192Z" transform="translate(-2060.081 -1745.829)" fill="#fff"/>
      <path id="Path_13" data-name="Path 13" d="M2239.365,1800.994c0,3.228-1.437,4.86-4.275,4.86s-4.257-1.632-4.257-4.86c0-3.264,1.419-4.877,4.257-4.877S2239.365,1797.731,2239.365,1800.994Zm-6.137,0c.018,1.827.639,2.749,1.845,2.749s1.809-.958,1.827-2.82c0-1.827-.6-2.731-1.809-2.731C2233.848,1798.192,2233.227,1799.132,2233.227,1800.994Z" transform="translate(-2148.581 -1793.581)" fill="#fff"/>
    </g>
    <g id="Group_18" data-name="Group 18" transform="translate(622.979 937.317)">
      <path id="Path_14" data-name="Path 14" d="M1064.633,970.137a18.53,18.53,0,0,1-1.766-1.591q-.408-.419-.789-.864-.184-.215-.362-.436c-.055-.069-.109-.139-.164-.207.276.34.032.04-.035-.05a18.236,18.236,0,0,1-1.3-2q-.287-.516-.541-1.05-.123-.259-.238-.522c-.02-.046-.042-.093-.061-.141.006.014.135.329.051.119-.038-.095-.077-.19-.115-.285a18.064,18.064,0,0,1-.732-2.322q-.143-.59-.246-1.189c-.033-.195-.063-.39-.091-.585-.026-.179.039.313.018.133-.006-.052-.013-.1-.019-.158q-.021-.178-.038-.356a18.415,18.415,0,0,1-.074-2.409q.019-.544.07-1.087.025-.26.056-.52c.006-.045.009-.093.018-.138,0,0-.055.382-.021.163.014-.091.027-.182.041-.274a18.039,18.039,0,0,1,.464-2.105q.143-.5.316-1a7.787,7.787,0,0,1,.384-1.006c.013-.026-.135.313-.075.177l.053-.123q.053-.123.109-.245.11-.244.228-.484.227-.464.481-.914a18.148,18.148,0,0,1,1.128-1.759c.1-.133.19-.273.3-.4,0,0-.228.29-.095.124l.062-.078q.093-.116.187-.232.325-.4.672-.773A18.338,18.338,0,0,1,1064,944.1q.188-.162.379-.319l.18-.146.1-.082c.175-.139-.229.174-.1.075.273-.206.549-.408.832-.6a18.2,18.2,0,0,1,1.8-1.074q.459-.24.931-.453l.245-.109.092-.04c.153-.068-.3.124-.146.062s.332-.135.5-.2a18.013,18.013,0,0,1,2.034-.638q.515-.129,1.037-.226.254-.048.509-.088l.274-.041c.094-.014.265-.03-.163.021l.138-.018a18.323,18.323,0,0,1,2.21-.137c.492,0,.983.019,1.474.056a1.394,1.394,0,0,0,1.387-1.387,1.421,1.421,0,0,0-1.387-1.387,19.728,19.728,0,0,0-9.6,1.734,19.163,19.163,0,0,0-6.893,5.306,19.519,19.519,0,0,0,1.913,26.907q.449.405.923.78a1.508,1.508,0,0,0,.981.406,1.387,1.387,0,0,0,.981-2.368Z" transform="translate(-1055.356 -937.317)" fill="#fff"/>
    </g>
    <g id="Group_19" data-name="Group 19" transform="translate(638.344 940.136)">
      <path id="Path_15" data-name="Path 15" d="M1373.2,995.791q.526.336,1.03.705c.079.058.157.117.235.176s.188.165-.107-.083c.037.031.077.061.115.091q.244.194.481.4a18.259,18.259,0,0,1,1.756,1.71q.2.218.385.442a2.816,2.816,0,0,1,.415.512c0-.01-.216-.284-.082-.107l.089.117q.088.118.174.236.183.253.357.512a18.153,18.153,0,0,1,1.237,2.135q.131.266.253.536c.041.09.08.181.12.271s.086.24-.053-.126c.022.058.047.115.071.172q.231.571.423,1.157a18.09,18.09,0,0,1,.617,2.453c.038.214.071.428.1.642.013.093.015.259-.019-.14,0,.051.013.1.019.153q.021.172.038.345.064.639.083,1.282a18.437,18.437,0,0,1-.087,2.416q-.014.139-.03.277c-.006.054-.052.408-.014.126s-.011.07-.02.124q-.023.154-.049.307-.1.575-.233,1.143a17.977,17.977,0,0,1-.651,2.139c-.067.179-.138.355-.208.532-.116.29.135-.308.01-.022-.04.092-.08.184-.122.276q-.234.517-.5,1.019a18.153,18.153,0,0,1-1.141,1.871q-.151.218-.309.43c-.052.071-.106.141-.159.212-.128.17.094-.121.1-.124-.036.054-.083.105-.123.156q-.34.426-.705.832a18.276,18.276,0,0,1-1.577,1.552q-.2.174-.4.342l-.206.167-.1.082c-.2.162.28-.212.071-.055-.292.219-.586.433-.889.636a18.2,18.2,0,0,1-1.921,1.126c-.328.166-.662.32-1,.468-.286.125.312-.126.022-.01l-.249.1q-.266.1-.536.2a18.038,18.038,0,0,1-2.186.626q-.571.125-1.15.214c-.054.008-.407.057-.124.019s-.072.008-.126.014q-.295.035-.59.06a18.468,18.468,0,0,1-2.673.031q-.385-.023-.769-.063c-.127-.013-.254-.029-.381-.044-.193-.021.276.041.085.012l-.236-.035a1.518,1.518,0,0,0-1.069.14,1.387,1.387,0,0,0-.5,1.9,1.339,1.339,0,0,0,.829.637,20.734,20.734,0,0,0,6.187.02,19.511,19.511,0,0,0,12.2-7.06,19.522,19.522,0,0,0,2.906-19.526,20.491,20.491,0,0,0-2.836-4.868,19.558,19.558,0,0,0-3.842-3.677q-.5-.37-1.03-.705a1.4,1.4,0,0,0-1.9.5,1.417,1.417,0,0,0,.5,1.9Z" transform="translate(-1360 -993.207)" fill="#fff"/>
    </g>
    <g id="Group_20" data-name="Group 20" transform="translate(629.582 941.96)">
      <path id="Path_16" data-name="Path 16" d="M1188.87,1037.95q.3-.483.629-.941c.05-.069.1-.136.152-.2s.165-.178-.083.108c.032-.036.06-.077.09-.114q.182-.227.374-.447a13.609,13.609,0,0,1,1.564-1.52c.075-.062.151-.122.226-.183.182-.147-.255.193-.021.016q.233-.176.474-.341.467-.321.96-.6t.978-.506q.134-.062.269-.122l.1-.044c.158-.069-.288.118-.127.054.183-.073.367-.146.553-.213a13.46,13.46,0,0,1,2.207-.589q.15-.026.3-.05l.113-.017c.176-.028-.319.04-.142.018.2-.025.407-.047.611-.064q.58-.048,1.162-.046.548,0,1.094.047.244.02.486.049l.138.017c-.425-.044-.258-.036-.163-.021l.273.043a13.4,13.4,0,0,1,2.052.51q.224.075.445.157l.251.1.094.037c.213.083-.051-.027-.114-.05a7.527,7.527,0,0,1,.937.443,13.527,13.527,0,0,1,1.721,1.067l.186.138c.247.183-.258-.208-.019-.014.128.1.257.208.383.316q.389.333.753.695t.7.749q.151.175.3.355c.066.082.262.354-.012-.021.052.071.107.141.159.212a13.522,13.522,0,0,1,1.09,1.745c.155.3.3.6.432.905.093.211-.129-.318-.023-.053.033.083.066.167.1.25q.1.252.182.508a13.467,13.467,0,0,1,.509,2.016c.014.079.026.159.039.239.007.046.013.091.02.137a1.735,1.735,0,0,0-.026-.2c.006.184.044.371.06.555q.048.545.052,1.092,0,.631-.048,1.261c-.016.189-.05.378-.06.567.024-.443.01-.077-.007.032s-.035.212-.054.318a13.424,13.424,0,0,1-.647,2.332q-.055.147-.114.293c-.114.282.1-.226,0-.006-.085.19-.171.38-.263.567q-.258.524-.56,1.024t-.666,1c-.053.073-.109.144-.162.217.256-.353.039-.052-.022.023q-.194.24-.4.471c-.256.289-.526.566-.805.832a1.4,1.4,0,0,0,0,1.961,1.415,1.415,0,0,0,1.962,0,15.06,15.06,0,0,0,4.566-9.59,14.834,14.834,0,0,0-2.2-9.077,14.892,14.892,0,0,0-24.751-.809q-.346.471-.65.971a1.387,1.387,0,0,0,2.4,1.4Z" transform="translate(-1186.29 -1029.372)" fill="#fff"/>
    </g>
    <g id="Group_21" data-name="Group 21" transform="translate(627.628 953.166)">
      <path id="Path_17" data-name="Path 17" d="M1165.486,1266.988c-.268.069-.538.132-.809.185q-.182.036-.366.067l-.184.03-.185.027.183-.025c-.569.02-1.131.106-1.7.106q-.636,0-1.269-.059l-.278-.029-.138-.017c-.261-.03.311.045.128.017-.216-.033-.432-.067-.647-.108a13.469,13.469,0,0,1-2.315-.666,2.309,2.309,0,0,1-.281-.113s.343.148.146.062l-.123-.054q-.29-.129-.575-.271-.521-.262-1.018-.567t-.988-.669l-.106-.079c-.2-.15.234.186.1.075-.077-.062-.155-.123-.232-.187q-.23-.189-.451-.388-.443-.4-.849-.833a6.452,6.452,0,0,1-.774-.9s.223.294.1.123l-.08-.106c-.059-.08-.118-.16-.175-.241q-.183-.257-.353-.522-.314-.49-.586-1.006-.132-.251-.254-.508-.065-.136-.126-.274l-.054-.123c-.119-.269.09.223.035.084-.148-.377-.291-.755-.41-1.142a13.418,13.418,0,0,1-.336-1.322q-.068-.338-.118-.679c-.009-.06-.032-.229,0,.013.036.27,0,0-.006-.057q-.02-.173-.036-.347a13.754,13.754,0,0,1-.053-1.481q.009-.489.052-.976c.014-.161.033-.32.052-.481.022-.194-.042.275-.011.083.018-.11.034-.221.053-.331a1.5,1.5,0,0,0-.14-1.069,1.387,1.387,0,0,0-2.535.331,15.41,15.41,0,0,0,.226,6.432,14.569,14.569,0,0,0,2.2,4.774,15.051,15.051,0,0,0,8.749,5.979,15.228,15.228,0,0,0,7.28-.081,1.387,1.387,0,1,0-.737-2.675Z" transform="translate(-1147.532 -1251.556)" fill="#fff"/>
    </g>
    <g id="Group_22" data-name="Group 22" transform="translate(632.152 946.521)">
      <path id="Path_18" data-name="Path 18" d="M1243.292,1136.393c-.142-.1-.28-.2-.42-.3.36.26.07.052-.008-.012s-.15-.127-.224-.192a8.984,8.984,0,0,1-.755-.754,1.883,1.883,0,0,1-.355-.424c-.007-.018.191.254.1.135l-.066-.089q-.1-.134-.192-.271a8.963,8.963,0,0,1-.549-.923c-.08-.155-.153-.312-.226-.47-.094-.2.046.114.051.125-.021-.044-.038-.094-.056-.139q-.055-.14-.105-.281a8.879,8.879,0,0,1-.3-1.054q-.063-.28-.107-.564c-.006-.038-.011-.076-.017-.115-.027-.177.037.317.02.138-.01-.1-.022-.206-.031-.31a9.031,9.031,0,0,1-.024-1.105q.01-.266.036-.531a1.645,1.645,0,0,0,.027-.245c0-.025-.05.343-.026.2.01-.057.017-.115.027-.172a8.947,8.947,0,0,1,.229-1.011c.091-.317.2-.626.326-.932.053-.134-.088.194-.074.175a.769.769,0,0,0,.055-.124c.032-.072.066-.143.1-.214q.111-.227.233-.448a8.954,8.954,0,0,1,.538-.849c.045-.063.094-.125.139-.189.1-.135-.2.249-.094.122.021-.026.042-.052.063-.078q.167-.208.348-.405a9.082,9.082,0,0,1,.689-.679c.117-.1.237-.2.358-.3.238-.193-.224.163-.042.033.082-.059.162-.118.245-.176a8.942,8.942,0,0,1,.947-.573q.239-.125.485-.236a1.023,1.023,0,0,1,.124-.055c-.024.007-.318.13-.144.062.095-.037.19-.075.285-.11a8.859,8.859,0,0,1,1.084-.32q.271-.062.545-.106l.138-.021c.232-.037-.3.035-.125.017.105-.011.21-.023.316-.032a1.387,1.387,0,0,0,0-2.774,10.34,10.34,0,0,0-9.564,9.409,10.376,10.376,0,0,0,4.6,9.566,1.4,1.4,0,0,0,1.9-.5,1.421,1.421,0,0,0-.5-1.9Z" transform="translate(-1237.246 -1119.809)" fill="#fff"/>
    </g>
    <g id="Group_23" data-name="Group 23" transform="translate(640.551 948.023)">
      <path id="Path_19" data-name="Path 19" d="M1410.048,1152.18q.122.083.242.169c.051.037.286.215.1.069s.081.068.118.1q.127.106.25.217a9.014,9.014,0,0,1,.8.815c.056.065.112.131.166.2.031.037.06.079.092.115-.246-.274-.137-.181-.082-.105.115.16.23.319.338.485a8.968,8.968,0,0,1,.579,1.035c.037.079.072.158.108.237.073.157-.116-.286-.052-.125.019.046.038.093.056.139q.109.28.2.567a8.95,8.95,0,0,1,.279,1.145c.017.1.038.2.048.3,0-.014-.042-.369-.021-.138,0,.052.011.1.016.155q.03.312.038.626a9.114,9.114,0,0,1-.04,1.116c-.005.055-.05.409-.011.126.035-.262,0,.023-.016.089q-.047.288-.113.572a9.008,9.008,0,0,1-.3,1.007q-.046.126-.095.251a.889.889,0,0,1-.05.124c-.015.026.137-.311.075-.177-.08.172-.156.344-.242.513a8.953,8.953,0,0,1-.52.887c-.092.138-.189.271-.286.405-.131.179.226-.282.014-.02q-.083.1-.169.2a9.051,9.051,0,0,1-.732.759q-.182.168-.373.325c-.06.049-.121.1-.18.145.358-.3.08-.064-.01,0a9,9,0,0,1-.866.552q-.261.146-.532.275c-.091.043-.183.082-.274.124-.134.063.2-.09.177-.075a1.268,1.268,0,0,1-.187.075,8.9,8.9,0,0,1-1.129.351q-.283.068-.57.117c-.063.011-.434.064-.157.027s-.1.008-.161.014a9.419,9.419,0,0,1-1.423.021,1.4,1.4,0,0,0-1.387,1.387,1.418,1.418,0,0,0,1.387,1.387,10.336,10.336,0,0,0,8.947-4.243,10.32,10.32,0,0,0,1.293-9.842,10.724,10.724,0,0,0-3.942-4.9,1.4,1.4,0,0,0-1.9.5,1.421,1.421,0,0,0,.5,1.9Z" transform="translate(-1403.762 -1149.592)" fill="#fff"/>
    </g>
    <g id="Group_24" data-name="Group 24" transform="translate(662.609 942.038)">
      <path id="Path_20" data-name="Path 20" d="M1843.482,1034.113l1.008-.825a1.391,1.391,0,0,0,.406-.981,1.411,1.411,0,0,0-.406-.981,1.4,1.4,0,0,0-.981-.406,1.584,1.584,0,0,0-.981.406l-1.008.825a1.391,1.391,0,0,0-.406.981,1.412,1.412,0,0,0,.406.981,1.4,1.4,0,0,0,.981.406,1.584,1.584,0,0,0,.981-.406Z" transform="translate(-1841.114 -1030.919)" fill="#fff"/>
    </g>
    <path id="Path_21" data-name="Path 21" d="M1032.878,1089.421a1.4,1.4,0,0,0-.981-.406,1.61,1.61,0,0,0-.981.406l-1.687,1.338-4.053,3.215-4.906,3.891-4.258,3.378c-.321.255-.647.506-.971.759l-3.348-3.559-.6-.637a1.4,1.4,0,0,0-1.681-.217l-1.84,1.323-4.419,3.176-5.348,3.844-4.625,3.324c-.75.539-1.5,1.074-2.251,1.618l-.032.023a1.5,1.5,0,0,0-.637.829,1.418,1.418,0,0,0,.14,1.069,1.4,1.4,0,0,0,1.9.5l1.84-1.323,4.419-3.176,5.348-3.843,4.625-3.324c.467-.335.943-.663,1.412-1l3.383,3.6.6.637a1.4,1.4,0,0,0,.981.406,1.611,1.611,0,0,0,.981-.406l1.687-1.338,4.053-3.215,4.905-3.891,4.258-3.378c.684-.543,1.4-1.062,2.06-1.634l.029-.023a1.386,1.386,0,0,0,.406-.981A1.412,1.412,0,0,0,1032.878,1089.421Z" transform="translate(-370.521 -144.046)" fill="#fff"/>
    <g id="Group_25" data-name="Group 25" transform="translate(618.841 966.535)">
      <path id="Path_22" data-name="Path 22" d="M975.4,1519.949l1.032-.741a1.5,1.5,0,0,0,.637-.829,1.416,1.416,0,0,0-.14-1.069,1.4,1.4,0,0,0-.829-.638,1.362,1.362,0,0,0-1.069.14l-1.032.741a1.5,1.5,0,0,0-.637.829,1.417,1.417,0,0,0,.14,1.069,1.4,1.4,0,0,0,.829.637,1.361,1.361,0,0,0,1.069-.14Z" transform="translate(-973.318 -1516.626)" fill="#fff"/>
    </g>
  </g>
</svg>
