<svg xmlns="http://www.w3.org/2000/svg" width="11.449" height="15.265" viewBox="0 0 11.449 15.265">
  <path id="Icon_awesome-file-alt" data-name="Icon awesome-file-alt" d="M6.678,4.055V0H.716A.714.714,0,0,0,0,.716V14.549a.714.714,0,0,0,.716.716H10.733a.714.714,0,0,0,.716-.716V4.77H7.394A.718.718,0,0,1,6.678,4.055Zm1.908,7.036a.359.359,0,0,1-.358.358H3.22a.359.359,0,0,1-.358-.358v-.239a.359.359,0,0,1,.358-.358H8.229a.359.359,0,0,1,.358.358Zm0-1.908a.359.359,0,0,1-.358.358H3.22a.359.359,0,0,1-.358-.358V8.944a.359.359,0,0,1,.358-.358H8.229a.359.359,0,0,1,.358.358Zm0-2.147v.239a.359.359,0,0,1-.358.358H3.22a.359.359,0,0,1-.358-.358V7.036a.359.359,0,0,1,.358-.358H8.229A.359.359,0,0,1,8.587,7.036Zm2.862-3.4v.182H7.632V0h.182a.715.715,0,0,1,.507.209L11.24,3.131A.713.713,0,0,1,11.449,3.634Z"/>
</svg>
