<svg id="data-encryption" xmlns="http://www.w3.org/2000/svg" width="91.417" height="89.84" viewBox="0 0 91.417 89.84">
  <path id="Path_230" data-name="Path 230" d="M36.728,78.807H39.88v6.3a4.729,4.729,0,0,0,4.728,4.728H104.5a6.3,6.3,0,0,0,6.3-6.3V1.576A1.576,1.576,0,0,0,109.231,0H87.165A1.576,1.576,0,0,0,86.05.462L78.631,7.881H57.218a4.729,4.729,0,0,0-4.728,4.728v9.457A14.2,14.2,0,0,0,38.3,36.251V40.98H36.728A4.729,4.729,0,0,0,32,45.708V74.079a4.729,4.729,0,0,0,4.728,4.728Zm18.914-66.2a1.576,1.576,0,0,1,1.576-1.576H79.284a1.576,1.576,0,0,0,1.114-.462l7.419-7.419h19.837V83.536a3.152,3.152,0,0,1-6.3,0V47.284a4.729,4.729,0,0,0-4.728-4.728h-6.3v3.152h6.3A1.576,1.576,0,0,1,98.2,47.284V83.536a6.239,6.239,0,0,0,.877,3.152H44.609a1.576,1.576,0,0,1-1.576-1.576v-6.3H68.251a4.729,4.729,0,0,0,4.728-4.728H87.165V70.927H72.98V67.774H87.165a1.576,1.576,0,0,0,1.114-.462l4.728-4.728a1.576,1.576,0,0,0,.462-1.114v-6.3H90.317v5.652l-3.8,3.8H72.98V61.47H85.589a1.576,1.576,0,0,0,1.576-1.576V40.056l9-9a1.576,1.576,0,0,0,.462-1.114v-6.3H98.2a1.576,1.576,0,0,0,1.576-1.576v-6.3A1.576,1.576,0,0,0,98.2,14.185h-6.3a1.576,1.576,0,0,0-1.576,1.576v6.3a1.576,1.576,0,0,0,1.576,1.576h1.576v5.652l-9,9a1.576,1.576,0,0,0-.462,1.114V58.317H72.98V55.165h6.3a1.576,1.576,0,0,0,1.576-1.576V29.947h1.576a1.576,1.576,0,0,0,1.576-1.576v-6.3a1.576,1.576,0,0,0-1.576-1.576h-6.3a1.576,1.576,0,0,0-1.576,1.576v6.3a1.576,1.576,0,0,0,1.576,1.576h1.576V52.013H72.98v-6.3a4.729,4.729,0,0,0-4.728-4.728H66.675V36.251a14.2,14.2,0,0,0-11.033-13.82ZM93.469,20.49V17.338h3.152V20.49Zm-15.761,6.3V23.642H80.86v3.152ZM41.456,36.251a11.033,11.033,0,1,1,22.066,0V40.98H60.37V36.251a7.881,7.881,0,0,0-15.761,0V40.98H41.456ZM57.218,40.98H47.761V36.251a4.728,4.728,0,1,1,9.457,0ZM35.152,45.708a1.576,1.576,0,0,1,1.576-1.576H68.251a1.576,1.576,0,0,1,1.576,1.576V74.079a1.576,1.576,0,0,1-1.576,1.576H36.728a1.576,1.576,0,0,1-1.576-1.576Zm0,0" transform="translate(-25.695)"/>
  <path id="Path_231" data-name="Path 231" d="M328,360h3.152v3.152H328Zm0,0" transform="translate(-263.378 -289.073)"/>
  <path id="Path_232" data-name="Path 232" d="M328,248h3.152v3.152H328Zm0,0" transform="translate(-263.378 -199.139)"/>
  <path id="Path_233" data-name="Path 233" d="M99.141,262.12V265.3a4.728,4.728,0,1,0,9.457,0v-3.185a7.88,7.88,0,1,0-9.457,0Zm.149-7.481a4.691,4.691,0,0,1,3.425-3.385,5.16,5.16,0,0,1,1.164-.135,4.655,4.655,0,0,1,2.928,1.023,4.7,4.7,0,0,1-.578,7.774,1.574,1.574,0,0,0-.788,1.361V265.3a1.576,1.576,0,0,1-3.152,0v-4.027a1.577,1.577,0,0,0-.788-1.361A4.692,4.692,0,0,1,99.29,254.64Zm0,0" transform="translate(-77.075 -199.106)"/>
  <path id="Path_234" data-name="Path 234" d="M384,32h3.152v3.152H384Zm0,0" transform="translate(-308.345 -25.695)"/>
  <path id="Path_235" data-name="Path 235" d="M352,32h3.152v3.152H352Zm0,0" transform="translate(-282.649 -25.695)"/>
  <path id="Path_236" data-name="Path 236" d="M0,240H3.152v26.794H0Zm0,0" transform="translate(0 -192.716)"/>
  <path id="Path_237" data-name="Path 237" d="M448,32h3.152V61.947H448Zm0,0" transform="translate(-359.736 -25.695)"/>
  <path id="Path_238" data-name="Path 238" d="M448,200h3.152v3.152H448Zm0,0" transform="translate(-359.736 -160.596)"/>
</svg>
