<svg xmlns="http://www.w3.org/2000/svg" width="378.033" height="258.092" viewBox="0 0 378.033 258.092">
  <g id="Group_153" data-name="Group 153" transform="translate(-199 -1212.909)">
    <path id="Path_239" data-name="Path 239" d="M206.205,185.406c-1.2,4.595-2.491,9.018-3.521,13.527a45.465,45.465,0,0,0-.945,7.215c-.215,2.534-1.546,3.908-4.123,3.908H15.449A10.39,10.39,0,0,1,5.358,201.51a18.718,18.718,0,0,1-.215-3.092q0-90.89-.043-181.78c0-5.712,3.607-10.392,9.061-11.208A7.907,7.907,0,0,1,15.578,5.3H285.565A10.338,10.338,0,0,1,296,15.735q0,62.29.043,124.537c0,2.534-1.5,4.681-4.939,3.994-3.822-.73-7.644-1.589-11.466-2.19-2.534-.387-5.11-.429-7.859-.644V35.275c0-3.736-1.632-5.368-5.325-5.368q-115.948,0-231.853-.043a4.846,4.846,0,0,0-5.153,5.153q.129,72.661.043,145.364a4.876,4.876,0,0,0,5.067,5.11q79.038-.064,158.076-.043h12.454A10.483,10.483,0,0,1,206.205,185.406Z" transform="translate(193.9 1207.609)"/>
    <path id="Path_240" data-name="Path 240" d="M295.746,121.654c-1.288.558-2.4,1.031-3.478,1.546-6.227,2.877-12.411,5.754-18.638,8.589-2.1.988-3.865.472-4.509-1.245a2.713,2.713,0,0,1,1.589-3.65c3.607-1.718,7.257-3.393,10.908-5.067,4.681-2.147,9.362-4.251,14-6.4,2.061-.945,4.08-1.932,6.184-2.791,2.748-1.117,4.337,0,4.509,2.963.3,5.282.687,10.564.988,15.846.172,2.791.215,5.583.387,8.331.172,3.178.387,6.313.644,9.491a2.833,2.833,0,0,1-2.4,3.178,2.749,2.749,0,0,1-3.307-2.705c-.215-2.577-.3-5.2-.472-7.816-.3-5.411-.558-10.865-.816-16.276-.043-.429-.172-.859-.3-1.546-.773,1.159-1.417,2.147-2.061,3.135-5.883,9.319-11.767,18.595-17.65,27.913-.644.988-1.331,1.932-1.89,2.963a3.242,3.242,0,0,1-3.264,1.675q-14.88,0-29.76-.043a2.872,2.872,0,0,0-2.491,1.245c-6.012,7.343-12.11,14.644-18.208,21.987-1.46,1.761-2.963,3.521-4.337,5.368a3.365,3.365,0,0,1-4.81.773Q202.9,179.907,189.2,170.781c-.3-.172-.6-.344-.988-.6-1.632,2.4-3.221,4.81-4.853,7.172-6.785,10.006-13.57,20.055-20.355,30.061-1.074,1.589-2.276,1.89-4.037,1.074-9.233-4.123-18.423-8.245-27.656-12.411-.9-.386-1.331-.172-1.89.558q-10.113,13.27-20.269,26.5c-1.374,1.8-2.748,3.564-4.123,5.368a2.807,2.807,0,1,1-4.509-3.307c5.067-6.656,10.178-13.355,15.288-20.012q5.6-7.279,11.208-14.6a2.975,2.975,0,0,1,3.908-.9c9.233,4.166,18.509,8.288,27.742,12.454.773.344,1.074.043,1.46-.558,3.264-4.9,6.57-9.748,9.877-14.6,5.024-7.386,10.006-14.773,15.03-22.116,1.2-1.718,2.748-1.932,4.509-.773q9.984,6.7,19.969,13.355c2.62,1.761,5.239,3.436,7.816,5.239.687.472,1.074.3,1.5-.258,6.313-7.687,12.668-15.374,18.981-23.061,1.159-1.417,2.362-2.791,3.521-4.208a2.983,2.983,0,0,1,2.534-1.031c10.006.043,20.012,0,30.018.043a2.177,2.177,0,0,0,2.1-1.159c6.527-10.349,13.1-20.656,19.625-31.005C295.617,122.169,295.617,122.083,295.746,121.654Z" transform="translate(139.831 1146.609)" fill="#242f78"/>
    <path id="Path_241" data-name="Path 241" d="M230.243,576.7c-21.944,0-43.845-.043-65.79.043-2.362,0-3.178-1.417-3.264-2.748-.129-1.632,1.331-2.791,3.221-2.791H296.075a2.789,2.789,0,0,1,3.049,2.233,2.584,2.584,0,0,1-1.417,3.006,4.075,4.075,0,0,1-1.632.258Z" transform="translate(104.846 884.727)"/>
    <path id="Path_242" data-name="Path 242" d="M227.5,132.171H190.956c-2.1,0-3.049-.945-2.963-3.049a2.558,2.558,0,0,1,2.4-2.448c.6-.043,1.2,0,1.847,0h71.673c1.89,0,2.748.6,3.135,2.276a2.659,2.659,0,0,1-2.448,3.264c-2.147.043-4.294,0-6.442,0Q242.832,132.15,227.5,132.171Z" transform="translate(89.551 1138.367)" fill="#242f78"/>
    <path id="Path_243" data-name="Path 243" d="M437.675,278.684V252.617c0-2.362,1.159-3.564,3.135-3.35a2.477,2.477,0,0,1,2.362,2.061,8.557,8.557,0,0,1,.172,1.8v51.06a9.389,9.389,0,0,1-.129,1.546,2.735,2.735,0,0,1-2.92,2.4,2.852,2.852,0,0,1-2.62-2.62,10.444,10.444,0,0,1,0-1.159Z" transform="translate(-52.9 1068.424)"/>
    <path id="Path_244" data-name="Path 244" d="M137.013,195.543h24.478c2.018,0,3.221,1.074,3.178,2.791a3.073,3.073,0,0,1-3.264,2.705H112.578a3.026,3.026,0,0,1-3.178-2.791c0-1.718,1.159-2.748,3.092-2.748C120.694,195.543,128.853,195.543,137.013,195.543Z" transform="translate(134.39 1099.087)" fill="#242f78"/>
    <path id="Path_245" data-name="Path 245" d="M302.243,295.472V274c0-2.276,1.074-3.393,3.092-3.307,1.374.043,2.276.988,2.577,2.662a5.244,5.244,0,0,1,.043,1.16v42.042c0,1.288-.086,2.663-1.374,3.307a3.915,3.915,0,0,1-2.705.172c-1.245-.386-1.675-1.546-1.675-2.834v-9.448C302.243,303.675,302.243,299.595,302.243,295.472Z" transform="translate(24.386 1056.187)"/>
    <path id="Path_246" data-name="Path 246" d="M505.6,272.4V252.392c0-2.018.945-3.092,2.705-3.092,1.8,0,2.834,1.074,2.834,3.135v39.938c0,1.975-.988,3.092-2.705,3.135-1.8.043-2.791-1.117-2.791-3.135C505.6,285.673,505.6,279.06,505.6,272.4Z" transform="translate(-91.667 1068.391)"/>
    <path id="Path_247" data-name="Path 247" d="M370.1,329.8V317.392c0-1.889,1.074-3.092,2.748-3.092,1.632,0,2.748,1.2,2.748,3.135V342.17c0,1.932-1.031,3.135-2.705,3.135-1.761.043-2.791-1.117-2.791-3.178Z" transform="translate(-14.356 1031.304)"/>
    <path id="Path_248" data-name="Path 248" d="M422.786,506.987V495.478c0-1.975,1.159-3.178,2.877-3.178a2.767,2.767,0,0,1,2.834,3.049q.064,11.724,0,23.447a2.717,2.717,0,0,1-2.963,3.049c-1.632-.043-2.705-1.245-2.705-3.178C422.743,514.76,422.786,510.895,422.786,506.987Z" transform="translate(-44.41 929.744)"/>
    <path id="Path_249" data-name="Path 249" d="M253.975,507.114v-11.9c0-1.8.988-2.92,2.577-2.92a2.728,2.728,0,0,1,2.92,2.92c.043,5.454,0,10.908,0,16.362,0,2.491.043,4.981,0,7.472a2.524,2.524,0,0,1-1.89,2.663,2.581,2.581,0,0,1-3.135-.988,3.288,3.288,0,0,1-.472-1.675C253.932,515.059,253.975,511.108,253.975,507.114Z" transform="translate(51.912 929.746)"/>
    <path id="Path_250" data-name="Path 250" d="M172.314,342.947v8.76c0,1.932-1.031,3.049-2.748,3.049a2.933,2.933,0,0,1-2.791-3.049c-.043-1.288,0-2.62,0-3.908V333.929a2.7,2.7,0,0,1,1.8-2.748,2.524,2.524,0,0,1,3.092.73,2.909,2.909,0,0,1,.6,1.761C172.357,336.764,172.314,339.855,172.314,342.947Z" transform="translate(101.665 1021.81)"/>
    <path id="Path_251" data-name="Path 251" d="M121.437,132.14h-9.018a2.644,2.644,0,0,1-2.92-2.663,2.8,2.8,0,0,1,2.877-2.877h18.079a2.888,2.888,0,0,1,2.834,2.834,2.766,2.766,0,0,1-2.92,2.662C127.363,132.14,124.4,132.14,121.437,132.14Z" transform="translate(134.335 1138.399)" fill="#242f78"/>
    <path id="Path_252" data-name="Path 252" d="M234.775,360.869v-4.037c0-1.8.945-2.834,2.663-2.834a2.546,2.546,0,0,1,2.834,2.791q.064,4.123,0,8.245a2.673,2.673,0,0,1-2.791,2.92c-1.718-.043-2.705-1.117-2.705-3.006C234.732,363.575,234.775,362.243,234.775,360.869Z" transform="translate(62.867 1008.655)"/>
    <path id="Path_253" data-name="Path 253" d="M471.3,389.434a59.327,59.327,0,1,1,59.391,59.219A59.244,59.244,0,0,1,471.3,389.434Zm8.331-.386a51.039,51.039,0,1,0,102.077.472c.129-27.87-22.8-51.06-50.545-51.189A51.045,51.045,0,0,0,479.631,389.047Z" transform="translate(-72.097 1022.347)" fill="#242f78"/>
    <path id="Path_254" data-name="Path 254" d="M691.5,244.6a41.634,41.634,0,1,1,41.7,41.569A41.6,41.6,0,0,1,691.5,244.6Zm5.8-.258a35.794,35.794,0,1,0,36.116-35.6A35.859,35.859,0,0,0,697.3,244.341Z" transform="translate(-197.735 1094.865)" fill="#242f78"/>
    <path id="Path_255" data-name="Path 255" d="M586.732,385.4c7.558,1.589,12.926,5.067,13.957,12.8,1.031,7.558-2.62,12.754-9.877,16.233,8.975,2.791,13.1,8.718,11.9,17.521-1.2,8.846-7.3,13.141-15.846,14.858v8.718h-8.589v-8.073h-5.84v8.116H563.8v-8.245H549.5v-8.245c.215-.129.386-.3.558-.3,5.712-.472,5.8-.558,5.8-6.227V400.261c0-6.1-.129-6.184-6.356-6.656v-8.331h14.128v-8.331h8.632v8.03h5.969V376.9h8.46C586.732,379.648,586.732,382.44,586.732,385.4Zm-17.049,33.84c0,5.669-.086,10.822.086,15.975a2.826,2.826,0,0,0,1.89,1.975,64.315,64.315,0,0,0,10.779-.558c3.865-.687,6.141-4.466,6.055-8.889-.086-4.166-2.061-7.129-6.141-7.73C578.272,419.371,574.064,419.457,569.684,419.242Zm0-8.675c4.337-.3,8.417-.344,12.411-.988,3.435-.558,5.411-3.607,5.368-7.086-.043-3.307-1.718-6.184-4.681-6.613-4.251-.644-8.632-.687-13.1-.988Z" transform="translate(-116.715 995.587)" fill="#242f78"/>
    <g id="Group_152" data-name="Group 152" transform="translate(515.409 1307.385)">
      <path id="Path_256" data-name="Path 256" d="M743.6,256.262c6.313-10.435,12.539-20.7,18.723-30.962.043,0,.086.043.129.043,0,.172.043.344.043.515v21.128c0,.429-.043.73-.515.9-5.969,2.705-11.938,5.454-17.865,8.159C744.029,256.134,743.9,256.134,743.6,256.262Z" transform="translate(-742.87 -225.3)" fill="#242f78"/>
      <path id="Path_257" data-name="Path 257" d="M791.572,225.3c6.227,10.264,12.411,20.527,18.723,30.962-.386-.172-.6-.215-.816-.344-5.8-2.663-11.595-5.325-17.392-7.945-.429-.215-.687-.387-.687-.945.043-7.129,0-14.214,0-21.343v-.344C791.486,225.343,791.529,225.3,791.572,225.3Z" transform="translate(-770.143 -225.3)" fill="#242f78"/>
      <path id="Path_258" data-name="Path 258" d="M743.7,290.332c6.356-2.92,12.54-5.754,18.809-8.632v19.539C756.24,297.589,750.056,293.982,743.7,290.332Z" transform="translate(-742.927 -257.48)" fill="#242f78"/>
      <path id="Path_259" data-name="Path 259" d="M791.5,301.239V281.7c6.27,2.877,12.454,5.711,18.809,8.632C804.04,293.982,797.813,297.589,791.5,301.239Z" transform="translate(-770.2 -257.48)" fill="#242f78"/>
      <path id="Path_260" data-name="Path 260" d="M761.482,336.069c-6.57-9.147-13.055-18.122-19.582-27.269a2.051,2.051,0,0,1,.515.215c6.227,3.607,12.411,7.215,18.638,10.822a.8.8,0,0,1,.515.773v14.9A1.18,1.18,0,0,0,761.482,336.069Z" transform="translate(-741.9 -272.942)" fill="#242f78"/>
      <path id="Path_261" data-name="Path 261" d="M811.125,308.8c-6.527,9.1-13.012,18.122-19.582,27.269a6.418,6.418,0,0,1-.043-.816V320.738c0-.387,0-.687.429-.9q9.469-5.475,18.938-10.994A1.953,1.953,0,0,0,811.125,308.8Z" transform="translate(-770.2 -272.942)" fill="#242f78"/>
    </g>
  </g>
</svg>
