<svg xmlns="http://www.w3.org/2000/svg" width="282.824" height="252.824" viewBox="0 0 282.824 252.824">
  <g id="Group_154" data-name="Group 154" transform="translate(-517 -3102)">
    <path id="Path_262" data-name="Path 262" d="M65.379,260.821c-6.568-2.484-9.383-5.8-9.439-11.039A10.954,10.954,0,0,1,63.5,239.074a10.762,10.762,0,0,1,12.309,3.864,4.527,4.527,0,0,0,4.305,2.1c11.481-.055,23.017-.055,34.5-.055h2.925a17.37,17.37,0,0,0,.221-2.263c0-8.114-.055-16.172.055-24.286,0-1.766-.552-2.429-2.208-3.091-5.851-2.373-11.591-5.133-17.387-7.617a7.639,7.639,0,0,0-2.981-.331c-1.1,0-2.153.331-3.257.331q-9.935.083-19.871,0a3.315,3.315,0,0,0-3.312,1.766,10.832,10.832,0,0,1-12.7,4.747,11.123,11.123,0,0,1,.166-21.306A10.834,10.834,0,0,1,68.856,197.9a3.277,3.277,0,0,0,3.257,1.821c4.636-.055,9.328-.055,13.965-.055a12.733,12.733,0,0,0,.773-1.049,4.587,4.587,0,0,1-1.766-.718A80.738,80.738,0,0,1,59.363,150.65c-.221-1.38-.552-2.153-2.153-2.1q-19.043.083-38.085.055a4.382,4.382,0,0,0-.828.276c-.055.773-.166,1.6-.166,2.484,0,11.757-.055,23.569.055,35.325A4.927,4.927,0,0,0,19.842,190c4.195,3.312,5.851,8.224,4.14,12.971a11.048,11.048,0,0,1-10.874,7.341A11.166,11.166,0,0,1,2.676,201.6a10.9,10.9,0,0,1,5.906-12.2c1.6-.828,1.711-1.877,1.711-3.257V147.228c0-5.74.883-6.624,6.789-6.624h40.79c.883-7.948,1.766-15.565,2.649-23.458a15.832,15.832,0,0,0-1.987-.166c-10.653,0-21.361,0-32.014-.055a3.231,3.231,0,0,0-3.312,1.766,10.78,10.78,0,0,1-12.585,5.023,11.107,11.107,0,0,1,0-21.361,10.78,10.78,0,0,1,12.585,5.023,3.013,3.013,0,0,0,3.036,1.711c11.7-.055,23.348-.055,35.049,0a2.85,2.85,0,0,0,3.2-2.153A80.532,80.532,0,0,1,87.458,75.363c2.594-2.208,2.649-2.208,2.263-6.072-.773-.055-1.545-.166-2.373-.166-4.305,0-8.666.11-12.971-.055-2.7-.11-4.636.166-6.292,2.925-2.429,3.974-7.783,5.244-12.254,3.7a11.132,11.132,0,0,1,.386-21.14c4.471-1.38,9.659.11,12.2,4.14,1.325,2.1,2.76,2.429,4.912,2.429,5.906-.11,11.757-.055,17.663-.055,5.851,0,6.513.607,7.12,6.072,6.4-2.76,12.861-5.52,19.595-8.39V24.03c-.938-.055-1.821-.166-2.7-.166-11.757,0-23.569,0-35.325-.055a3.813,3.813,0,0,0-3.588,1.821,10.845,10.845,0,0,1-12.7,4.029,11.113,11.113,0,0,1,1.27-21.306,10.72,10.72,0,0,1,12.088,5.52,3.236,3.236,0,0,0,3.367,1.987q19.871-.083,39.741-.055c4.636,0,5.74,1.1,5.74,5.63V56.6h23.679V53.671c0-5.906-.11-11.757.055-17.663.055-3.588-.055-6.4-3.643-9.052-5.188-3.809-4.692-11.646.055-16.007a11.13,11.13,0,0,1,16.172,1.27,10.922,10.922,0,0,1-2.429,16.007,4.656,4.656,0,0,0-2.429,4.636c.11,8.279.055,16.559.055,24.617,7.01,2.539,13.854,5.078,20.919,7.617V56.927c0-4.416,1.159-5.63,5.52-5.63,7.838,0,15.62-.055,23.458,0a3.8,3.8,0,0,0,3.808-1.932,10.772,10.772,0,0,1,12.75-4.526,11.16,11.16,0,0,1-.552,21.306,11.213,11.213,0,0,1-12.585-5.188c-.442-.718-1.214-1.656-1.821-1.656-7.4-.11-14.848-.055-22.52-.055,0,3.7-.055,7.065.055,10.432a2.931,2.931,0,0,0,1.325,1.877,81.475,81.475,0,0,1,31.517,47.137c.055.166.166.276.331.607h49.9c.055-.938.166-1.766.166-2.539,0-11.867.055-23.734-.055-35.6a4.53,4.53,0,0,0-1.545-3.091c-4.084-3.2-5.851-7.783-4.416-12.419a11.1,11.1,0,0,1,10.432-8,11.253,11.253,0,0,1,10.763,7.562,12.436,12.436,0,0,0,.607,1.214v4.968c-1.877,2.373-3.533,5.078-5.8,7.01-1.325,1.1-2.042,1.877-1.987,3.643q.083,19.705.055,39.41c0,4.857-1.1,5.961-6.016,5.961H224.013c-1.049,0-2.1.11-3.2.166v23.293a4.118,4.118,0,0,0,.938.166c13.413,0,26.825.055,40.238-.055a3.927,3.927,0,0,0,2.594-1.766,11.153,11.153,0,0,1,11.646-4.968c4.747.938,7.231,4.25,9,8.39V157.6a4.765,4.765,0,0,0-.552.883c-1.656,4.581-4.968,7.341-9.825,7.672-4.637.331-8.059-1.766-10.6-5.63a4.152,4.152,0,0,0-3.146-1.325c-13.357-.11-26.66,0-40.017-.11-1.932,0-2.815.5-3.422,2.484a79.475,79.475,0,0,1-28.812,41.011c-2.649,1.987-2.981,3.974-2.318,6.955,7.065,0,14.02-.055,21.03.055a3.166,3.166,0,0,0,3.2-1.877,10.725,10.725,0,0,1,12.254-5.188,11.107,11.107,0,0,1,.607,21.306,10.752,10.752,0,0,1-12.7-4.636,3.453,3.453,0,0,0-3.533-1.821c-7.176.055-14.351.055-21.526.055s-7.286-.11-7.672-7.065c0-.11-.221-.276-.055-.11-6.292,2.153-12.364,4.416-18.546,6.348-1.766.552-2.263,1.269-2.263,3.036.11,5.685.11,11.426,0,17.111a3.5,3.5,0,0,0,1.932,3.477,10.419,10.419,0,0,1,5.133,11.039c-.662,4.636-3.477,7.562-7.838,9.052-.5.166-.994.386-1.49.552h-3.312c-3.091-1.159-6.072-2.539-7.838-5.63-3.367-5.851-1.325-12.033,5.464-16.172V218.486H125.874V246.36c0,5.8-.773,6.568-6.734,6.568q-19.291,0-38.582.055c-.994,0-2.539.276-2.815.883-1.821,3.809-4.912,5.8-8.721,7.01C67.587,260.821,66.483,260.821,65.379,260.821Zm102-131.477c0-4.636.055-9.107,0-13.633-.276-13.523-10.322-25.059-23.072-26.549-14.185-1.656-26.715,6.679-29.916,20.312-.883,3.7-.718,7.672-.883,11.481-.11,2.815,0,5.63,0,8.555h-4.526c-3.643,0-3.974.331-3.974,3.919v40.845c0,3.422.386,3.753,3.809,3.753h62.1c3.367,0,3.809-.442,3.809-3.809V136.685C174.612,129.841,174.612,129.841,167.381,129.344Z" transform="translate(514.599 3093.948)" fill="#242f78"/>
    <path id="Path_266" data-name="Path 266" d="M255,203.33H222.1c.331-6.182,0-12.419,1.1-18.325,1.435-7.341,9.052-12.309,16.5-11.922,7.617.442,14.3,6.016,15.179,13.523C255.494,192.07,255,197.59,255,203.33Z" transform="translate(416.165 3020.017)" fill="#242f78"/>
    <path id="Path_267" data-name="Path 267" d="M246.768,262.354c1.1,5.078,2.1,9.935,3.2,14.958h-9c.773-4.36,1.49-8.611,2.263-12.805.221-1.38.276-2.484-1.214-3.477a5.755,5.755,0,0,1-2.208-7.231,6.066,6.066,0,0,1,6.072-3.809,6.154,6.154,0,0,1,2.484,11.591C247.872,261.8,247.376,262.023,246.768,262.354Z" transform="translate(408.442 2985.556)" fill="#242f78"/>
  </g>
</svg>
