<svg xmlns="http://www.w3.org/2000/svg" width="85.995" height="85.907" viewBox="0 0 85.995 85.907">
  <g id="popular_exchange-01" data-name="popular exchange-01" transform="translate(-3.2 -3.296)">
    <path id="Path_223" data-name="Path 223" d="M46.333,89.2h-33.6c-5.944,0-9.538-3.564-9.538-9.46V29.859c0-5.808,3.555-9.372,9.372-9.4,2.108-.01,4.555.651,6.206-.214,1.573-.826,2.3-3.244,3.448-4.944a27.106,27.106,0,0,1,46.891,3.263c.709,1.437,1.428,2.01,3.03,1.923,2.71-.146,5.429-.039,8.139-.039,3,0,3.137.136,3.137,3.05,0,5.633.029,11.266-.019,16.9a1.978,1.978,0,0,0,1.447,2.234,6.68,6.68,0,0,1,4.283,6.556c.087,4.681.068,9.363.01,14.044a6.855,6.855,0,0,1-4.409,6.7,1.84,1.84,0,0,0-1.321,2.108c.039,4.817.019,9.635.01,14.452,0,2.428-.272,2.7-2.69,2.7Q63.543,89.207,46.333,89.2ZM67.554,53.363c.35-4.186.35-4.186,4.39-4.186h.408c3.71,0,3.71,0,3.875,3.652a1.22,1.22,0,0,0,.185.379h4.04V37.532H15.37c-3.157,0-6.4.456-9.3-2.185v30.6c0,4.817-.029,9.635.01,14.462C6.1,83.433,7.881,85.6,10.62,85.783V64.843c.962.049,1.68.078,2.622.126V86.191h67.22V70.651h-4.1c-.563,1.7.894,4.322-2.6,4.264-5.565-.087-5.565.049-6.3-4.409-2.525,0-5.089.058-7.653-.039a3.2,3.2,0,0,1-2.088-.864,73.755,73.755,0,0,1-5.06-6.362,2.707,2.707,0,0,1-.029-2.457,69.307,69.307,0,0,1,5.07-6.362,3.511,3.511,0,0,1,2.244-.991C62.417,53.286,64.922,53.363,67.554,53.363ZM38.951,14.64c.068-.991.136-1.845.194-2.651h2.69c.049.942.087,1.739.126,2.593h2.681c.087-.962.155-1.807.223-2.6h2.671c.049.942.087,1.748.136,2.651,3.652.427,6.478,2.02,7.877,5.546a8.554,8.554,0,0,1-1.573,8.955c1.525,1.748,2.855,3.322,4.235,4.846a2.131,2.131,0,0,0,1.224.806c3.04.068,6.09.039,9.071.039,2.321-8.751-2.263-19.444-10.5-24.776A24.228,24.228,0,0,0,29.53,11.454c-7.168,5.827-11.053,16.511-8.46,23.251H36.183c0-5.691.068-11.247-.029-16.812C36.125,15.844,36.378,14.339,38.951,14.64Zm.253,2.885V29.034c3.011,0,5.866.126,8.7-.029a5.545,5.545,0,0,0,5.41-5.915,5.7,5.7,0,0,0-5.633-5.546C44.905,17.447,42.127,17.525,39.2,17.525ZM17.487,34.735c.2-3.866.408-7.6.612-11.48-2.137,0-4.439-.126-6.721.029a5.753,5.753,0,0,0-5.332,5.662,5.583,5.583,0,0,0,5.177,5.75C13.369,34.89,15.544,34.735,17.487,34.735Zm37.742,27.3c1.34,1.7,2.613,3.351,3.943,4.963a1.827,1.827,0,0,0,1.146.68c2.409.058,4.808.029,7.245.029V56.394C60.377,55.481,59.561,55.85,55.229,62.037Zm21.056,5.6c2.195,0,4.293.126,6.362-.039a3.968,3.968,0,0,0,3.6-3.807c.117-2.885.029-5.779.029-8.518-1.719.321-3.273.748-4.866.884-1.661.146-3.351.029-5.138.029C76.286,60.114,76.286,63.8,76.286,67.641Zm-4.9-44.308c.2,3.875.4,7.6.6,11.334h8.5V23.333Zm-.748,28.622v20h2.651v-20Zm-15.5-17.278.262-.641a4.82,4.82,0,0,0-4.128-2.03c-4.021.117-8.071-.1-12.131-.1v2.758C44.536,34.677,49.839,34.677,55.132,34.677Zm28.4,18.463c1.9-1.059,2.817-2.37,2.749-4.225a4.227,4.227,0,0,0-2.749-3.827Z" transform="translate(0 0)"/>
    <path id="Path_224" data-name="Path 224" d="M742.1,803.313V800.7h2.584v2.613Z" transform="translate(-667.135 -719.957)"/>
    <path id="Path_225" data-name="Path 225" d="M82.016,461.3v2.583H79.5V461.3Z" transform="translate(-68.889 -413.521)"/>
    <path id="Path_226" data-name="Path 226" d="M79.6,519.7h2.457v2.6H79.6Z" transform="translate(-68.98 -466.249)"/>
    <path id="Path_227" data-name="Path 227" d="M79.2,581.422V578.8h2.428v2.622Z" transform="translate(-68.619 -519.609)"/>
    <path id="Path_228" data-name="Path 228" d="M213.674,270.5v2.409H211.1V270.5Z" transform="translate(-187.708 -241.252)"/>
    <path id="Path_229" data-name="Path 229" d="M627.8,272.435h-2.6V269.9h2.477C627.716,270.648,627.754,271.415,627.8,272.435Z" transform="translate(-561.589 -240.711)"/>
  </g>
</svg>
